# xmcd
#
# Track frame offsets: 
#        150
#        17285
#        37213
#
# Disc length: 703 seconds
#
# Revision: 2
# Processed by: cddbd v1.5.2PL0 Copyright (c) Steve Scherf et al.
# Submitted via: ExactAudioCopyFreeDBPlugin 1.0
#
DISCID=1a02bd03
DTITLE=Bobby Ross Avila - Be Mine [CDS Promo)
DYEAR=1989
DGENRE=R&B
TTITLE0=Be Mine (Radio Mix)
TTITLE1=Be Mine (Extended Mix)
TTITLE2=Be Mine (Album Version)
EXTD=YEAR: 1998 ID3G: 10
EXTT0=
EXTT1=
EXTT2=
PLAYORDER=
